<svg id="canvas" height="auto" xmlns="http://www.w3.org/2000/svg" version="1.1" xmlns:xlink="http://www.w3.org/1999/xlink" viewBox="0 0 900 512" width="auto" style="width: auto; height: auto;"><rect width="900" height="512" fill="#000000"/><svg width="65.73407663438435" height="65.73407663438435" stroke-width="1" stroke="#00ffff" fill="none" x="885.5296787709538" y="249.50084932645345"><line x1="0" y1="16.433519158596088" x2="32.867038317192176" y2="16.43451915859609"/><line x1="16.433519158596088" y1="0" x2="16.43451915859609" y2="32.867038317192176"/></svg><svg width="64.35911113247573" height="64.35911113247573" stroke-width="1" stroke="#00ffff" fill="none" x="706.1497081197161" y="452.7169658318221"><line x1="0" y1="16.089777783118933" x2="32.179555566237866" y2="16.090777783118934"/><line x1="16.089777783118933" y1="0" x2="16.090777783118934" y2="32.179555566237866"/></svg><polyline points="51.67523956298828,147.2594320607657 80.64625492203035,118.28841670172363 109.61727028107242,147.2594320607657 138.5882856401145,118.28841670172363 167.55930099915656,147.2594320607657 196.53031635819863,118.28841670172363 225.5013317172407,147.2594320607657" stroke-width="1" stroke="#00ffff" fill="none"/><svg width="91.15532485618087" height="91.15532485618087" stroke-width="1" stroke="#00ffff" fill="none" x="63.521810357435676" y="427.0989951127712"><line x1="0" y1="22.788831214045217" x2="45.577662428090434" y2="22.78983121404522"/><line x1="22.788831214045217" y1="0" x2="22.78983121404522" y2="45.577662428090434"/></svg><polyline points="22.04779815673828,381.4096616735254 45.52331383325256,357.93414599701117 68.99882950976682,381.4096616735254 92.4743451862811,357.93414599701117 115.94986086279538,381.4096616735254 139.42537653930964,357.93414599701117 162.90089221582392,381.4096616735254" stroke-width="1" stroke="#00ffff" fill="none"/><svg width="90.70505626837829" height="90.70505626837829" stroke-width="1" stroke="#00ffff" fill="none" x="426.71584756801917" y="120.27869958606132"><line x1="0" y1="22.67626406709457" x2="45.35252813418914" y2="22.677264067094573"/><line x1="22.67626406709457" y1="0" x2="22.677264067094573" y2="45.35252813418914"/></svg><svg width="101.39480106906731" height="101.39480106906731" stroke-width="1" stroke="#00ffff" fill="none" x="382.7499325194293" y="14.393283397129752"><line x1="0" y1="25.34870026726683" x2="50.69740053453366" y2="25.34970026726683"/><line x1="25.34870026726683" y1="0" x2="25.34970026726683" y2="50.69740053453366"/></svg><svg width="98.65964373826749" height="98.65964373826749" stroke-width="1" stroke="#00ffff" fill="none" x="843.3751493565479" y="405.7236530916471"><line x1="0" y1="24.664910934566873" x2="49.329821869133745" y2="24.665910934566874"/><line x1="24.664910934566873" y1="0" x2="24.665910934566874" y2="49.329821869133745"/></svg><polyline points="120.71039581298828,288.602075246516 146.0543925471938,263.2580785123105 171.39838928139932,288.602075246516 196.74238601560484,263.2580785123105 222.08638274981035,288.602075246516 247.43037948401587,263.2580785123105 272.7743762182214,288.602075246516" stroke-width="1" stroke="#00ffff" fill="none"/><polyline points="246.79986572265625,497.2704755428548 272.85732073193253,471.2130205335785 298.9147757412088,497.2704755428548 324.97223075048504,471.2130205335785 351.0296857597613,497.2704755428548 377.0871407690376,471.2130205335785 403.1445957783138,497.2704755428548" stroke-width="1" stroke="#00ffff" fill="none"/><circle r="28.633528264268605" cx="28.633528264268605" cy="28.633528264268605" transform="matrix(1,0,0,1,606.6830962187697,93.8312518229681)" stroke-width="1" stroke="#00ffff" fill="none"/><polyline points="138.04649353027344,232.35158918856965 164.22925393445126,206.16882878439182 190.41201433862906,232.35158918856965 216.5947747428069,206.16882878439182 242.77753514698472,232.35158918856965 268.9602955511625,206.16882878439182 295.1430559553404,232.35158918856965" stroke-width="1" stroke="#00ffff" fill="none"/><svg width="52.161151883875135" height="52.161151883875135" stroke-width="1" stroke="#00ffff" fill="none" x="362.9051248264644" y="477.1370296986738"><line x1="0" y1="13.040287970968784" x2="26.080575941937568" y2="13.041287970968783"/><line x1="13.040287970968784" y1="0" x2="13.041287970968783" y2="26.080575941937568"/></svg><circle r="14.976441595053391" cx="14.976441595053391" cy="14.976441595053391" transform="matrix(1,0,0,1,821.3040321993145,2.2666854123563436)" stroke-width="1" stroke="#00ffff" fill="none"/><polyline points="381.903076171875,410.84970482355766 426.728189904109,366.02459109132366 471.553303636343,410.84970482355766 516.378417368577,366.02459109132366 561.203531100811,410.84970482355766 606.0286448330451,366.02459109132366 650.8537585652789,410.84970482355766" stroke-width="1" stroke="#00ffff" fill="none"/><svg width="115.32602045521915" height="115.32602045521915" stroke-width="1" stroke="#00ffff" fill="none" x="638.9663678790095" y="0.19623092071177112"><line x1="0" y1="28.831505113804788" x2="57.663010227609576" y2="28.83250511380479"/><line x1="28.831505113804788" y1="0" x2="28.83250511380479" y2="57.663010227609576"/></svg><svg width="114.41446140078318" height="114.41446140078318" stroke-width="1" stroke="#00ffff" fill="none" x="35.475851774224786" y="456.00878017925453"><line x1="0" y1="28.603615350195795" x2="57.20723070039159" y2="28.604615350195797"/><line x1="28.603615350195795" y1="0" x2="28.604615350195797" y2="57.20723070039159"/></svg><circle r="25.34517128621263" cx="25.34517128621263" cy="25.34517128621263" transform="matrix(1,0,0,1,884.7141198744185,148.47990127158403)" stroke-width="1" stroke="#00ffff" fill="none"/><svg width="48.6157542393679" height="48.6157542393679" stroke-width="1" stroke="#00ffff" fill="none" x="279.7050333025446" y="318.4942625556938"><line x1="0" y1="12.153938559841976" x2="24.30787711968395" y2="12.154938559841975"/><line x1="12.153938559841976" y1="0" x2="12.154938559841975" y2="24.30787711968395"/></svg><svg width="54.06183601322116" height="54.06183601322116" stroke-width="1" stroke="#00ffff" fill="none" x="543.7083815589713" y="25.692686477184328"><line x1="0" y1="13.51545900330529" x2="27.03091800661058" y2="13.51645900330529"/><line x1="13.51545900330529" y1="0" x2="13.51645900330529" y2="27.03091800661058"/></svg></svg>