<svg xmlns="http://www.w3.org/2000/svg" version="1.1" xmlns:xlink="http://www.w3.org/1999/xlink" xmlns:svgjs="http://svgjs.com/svgjs" width="1440" height="560" preserveAspectRatio="none" viewBox="0 0 1440 560"><g mask="url(&quot;#SvgjsMask1133&quot;)" fill="none"><rect width="1440" height="560" x="0" y="0" fill="rgba(250, 249, 246, 1)"></rect><path d="M -90.9436609935018,91 C 5.06,139.4 197.06,309.4 389.0563390064982,333 C 581.06,356.6 677.06,200.6 869.0563390064982,209 C 1061.06,217.4 1157.06,365.8 1349.056339006498,375 C 1541.06,384.2 1810.87,271.8 1829.056339006498,255 C 1847.25,238.2 1517.81,283.8 1440,291" stroke="rgba(51, 51, 51, 0.2)" stroke-width="2"></path><path d="M -24.868073408628447,175 C 71.13,214 263.13,354.8 455.13192659137155,370 C 647.13,385.2 743.13,261.8 935.1319265913716,251 C 1127.13,240.2 1223.13,314 1415.1319265913717,316 C 1607.13,318 1890.16,237.4 1895.1319265913717,261 C 1900.11,284.6 1531.03,399.4 1440,434" stroke="rgba(51, 51, 51, 0.2)" stroke-width="2"></path><path d="M -605.0457565383889,182 C -509.05,231.2 -317.05,409.8 -125.04575653838887,428 C 66.95,446.2 162.95,295 354.9542434616111,273 C 546.95,251 642.95,346.4 834.9542434616111,318 C 1026.95,289.6 1193.95,136.2 1314.9542434616112,131 C 1435.96,125.8 1414.99,259.8 1440,292" stroke="rgba(51, 51, 51, 0.2)" stroke-width="2"></path><path d="M -213.68633252008027,233 C -117.69,268.2 74.31,442 266.31366747991973,409 C 458.31,376 554.31,50.8 746.3136674799198,68 C 938.31,85.2 1034.31,454 1226.3136674799198,495 C 1418.31,536 1663.58,299 1706.3136674799198,273 C 1749.05,247 1493.26,346.6 1440,365" stroke="rgba(51, 51, 51, 0.2)" stroke-width="2"></path></g><defs><mask id="SvgjsMask1133"><rect width="1440" height="560" fill="#ffffff"></rect></mask></defs></svg>